<?xml version="1.0" encoding="UTF-8"?><svg id="Layer_2" xmlns="http://www.w3.org/2000/svg" xmlns:xlink="http://www.w3.org/1999/xlink" viewBox="0 0 43.26 43.27"><defs><style>.cls-1{fill:url(#linear-gradient);}.cls-1,.cls-2{stroke-width:0px;}.cls-2{fill:none;}.cls-3{clip-path:url(#clippath);}</style><clipPath id="clippath"><path class="cls-2" d="M22.92,0v20.34h10.17c5.62,0,10.17-4.55,10.17-10.17,0-5.62-4.55-10.17-10.17-10.17h-10.17ZM10.17,0C4.55,0,0,4.55,0,10.17h0C0,15.79,4.55,20.34,10.17,20.34h10.17V0h-10.17ZM22.92,22.93v20.34h20.33v-10.17c0-5.62-4.55-10.17-10.17-10.17h-10.17ZM10.17,22.93C4.55,22.93,0,27.48,0,33.1c0,5.62,4.55,10.17,10.17,10.17h10.17v-20.34h-10.17Z"/></clipPath><linearGradient id="linear-gradient" x1="-251.95" y1="326.75" x2="-251.71" y2="326.75" gradientTransform="translate(93052.96 14396.74) rotate(-40) scale(246.3 -216.48)" gradientUnits="userSpaceOnUse"><stop offset="0" stop-color="#85868a"/><stop offset=".1" stop-color="#98999c"/><stop offset=".2" stop-color="#a9aaac"/><stop offset=".3" stop-color="#b8babb"/><stop offset=".4" stop-color="#c6c7c8"/><stop offset=".5" stop-color="#d1d3d2"/><stop offset=".6" stop-color="#dadcdb"/><stop offset=".7" stop-color="#dddfde"/><stop offset=".8" stop-color="#dddfde"/><stop offset=".9" stop-color="#dddfde"/><stop offset="1" stop-color="#dddfde"/></linearGradient></defs><g id="Layer_1-2"><g class="cls-3"><path class="cls-1" d="M0,0h285.22s0,43.26,0,43.26H0S0,0,0,0Z"/></g></g></svg>