<svg xmlns="http://www.w3.org/2000/svg" width="285.215" height="43.265"><defs><clipPath id="a"><path data-name="Path 1842" d="M22.922-80.307v20.339H33.09a10.169 10.169 0 0010.167-10.169 10.169 10.169 0 00-10.167-10.17H22.922zm-12.754 0A10.169 10.169 0 000-70.137a10.169 10.169 0 0010.168 10.169h10.167v-20.339zm12.754 22.926v20.339h20.335v-10.17A10.169 10.169 0 0033.09-57.381H22.922zm-12.754 0A10.169 10.169 0 000-47.212a10.169 10.169 0 0010.168 10.17h10.167v-20.339z" transform="translate(0 80.307)" fill="none"/></clipPath><clipPath id="c"><path data-name="Path 1844" d="M0-37.042h285.215v-43.265H0z" transform="translate(0 80.307)" fill="none"/></clipPath><linearGradient id="b" y1=".141" x2=".247" y2=".141" gradientUnits="objectBoundingBox"><stop offset="0" stop-color="#85868a"/><stop offset=".1" stop-color="#98999c"/><stop offset=".2" stop-color="#a9aaac"/><stop offset=".3" stop-color="#b8babb"/><stop offset=".4" stop-color="#c6c7c8"/><stop offset=".5" stop-color="#d1d3d2"/><stop offset=".6" stop-color="#dadcdb"/><stop offset=".7" stop-color="#dddfde"/><stop offset=".8" stop-color="#dddfde"/><stop offset=".9" stop-color="#dddfde"/><stop offset="1" stop-color="#dddfde"/></linearGradient></defs><g data-name="Group 1131"><g data-name="Group 1132"><g data-name="Group 1131" clip-path="url(#a)"><path data-name="Path 1841" d="M27.81 0L246.3 183.333l-27.81 33.143L0 33.143z" transform="rotate(-40 13.905 38.204)" fill="url(#b)"/></g></g><g data-name="Group 1134"><g data-name="Group 1133" clip-path="url(#c)"><path data-name="Path 1843" d="M117.805 19.009a5.99 5.99 0 00-2.345-2.309 6.581 6.581 0 00-3.3-.871 6.577 6.577 0 00-5.223 2.371 8.861 8.861 0 00-2.041 6 9.091 9.091 0 001.914 6.026 6.437 6.437 0 005.25 2.326 6.815 6.815 0 003.417-.9 5.524 5.524 0 002.326-2.342v1.5a5.43 5.43 0 01-1.343 4.067 4.916 4.916 0 01-3.56 1.313 5.809 5.809 0 01-1.883-.332 3.162 3.162 0 01-2.167-2.389l-3.433-.031a5.548 5.548 0 002.119 4.05 7.884 7.884 0 005.269 1.677 8.508 8.508 0 006.059-2.1c1.5-1.408 2.263-3.48 2.263-6.249V16.193h-3.322zm-1.582 8.907a4.034 4.034 0 01-3.228 1.5 4 4 0 01-3.164-1.408 5.211 5.211 0 01-1.233-3.588 5.96 5.96 0 011.234-3.876 3.891 3.891 0 013.164-1.5 4.111 4.111 0 013.228 1.424 5.327 5.327 0 011.249 3.632 5.7 5.7 0 01-1.25 3.816M88.428 16.193h3.432v16.2h-3.433v-2.041a6.759 6.759 0 01-1.867 1.678 5.339 5.339 0 01-2.99.791 6.2 6.2 0 01-3.117-.791 5.238 5.238 0 01-1.519-1.155 7.143 7.143 0 01-1.486-4.731v-9.951h3.718v9.556c0 2.721 1.266 3.987 3.211 3.987a3.562 3.562 0 002.863-1.471 6.031 6.031 0 001.187-3.908zm14.969-.253h.743v3.591h-.554c-3.147-.047-4.726 1.519-4.726 4.669v8.193h-3.338v-16.2h3.338v1.977a3.461 3.461 0 01.617-.886 5.117 5.117 0 011.471-.886 6.22 6.22 0 012.452-.458m-32.556 4.176a5.255 5.255 0 002.057-1.772 4.688 4.688 0 00.823-2.769 5.367 5.367 0 00-1.851-4.3 7.028 7.028 0 00-4.7-1.566h-9.35v22.748h10.268a6.624 6.624 0 004.825-1.725 6.371 6.371 0 001.852-4.651 6.282 6.282 0 00-1.076-3.67 5.889 5.889 0 00-2.848-2.294m-9.555-7.2h5.7a2.892 2.892 0 013.022 3.18 2.936 2.936 0 01-.838 2.12 2.776 2.776 0 01-2.025.854h-5.853zm8.559 15.188a3.332 3.332 0 01-2.437.917h-6.059v-6.77h6.059a3.294 3.294 0 012.421.981 3.429 3.429 0 01.949 2.452 3.23 3.23 0 01-.933 2.421M131.507 16a7.2 7.2 0 00-5.569 2.326 8.579 8.579 0 00-2.152 6.094 8.421 8.421 0 002.136 6.107 7.459 7.459 0 005.679 2.23 7.16 7.16 0 004.715-1.534 6.241 6.241 0 002.244-3.955h-3.228a3.582 3.582 0 01-3.734 2.5 4.116 4.116 0 01-3.085-1.155 4.169 4.169 0 01-1.153-3.113v-.032h11.47a9.945 9.945 0 00-1.693-6.787 6.569 6.569 0 00-5.63-2.681m-4.047 6.442a3.485 3.485 0 011.218-2.5 3.992 3.992 0 012.737-.965 3.8 3.8 0 012.674.965 3.5 3.5 0 011.108 2.5zm122.569 1.819A4.021 4.021 0 01251.5 27.5a4.522 4.522 0 01-1.914 3.829 7.207 7.207 0 01-4.4 1.423 8 8 0 01-4.855-1.452 5.068 5.068 0 01-2.121-4.1h3.307a3.366 3.366 0 003.528 2.63 3.162 3.162 0 002.072-.664 2.1 2.1 0 00.792-1.666c0-1.091-1-1.788-2.991-2.073-2.673-.38-4.477-1.139-5.252-2.152a3.813 3.813 0 01-.965-2.673 4.183 4.183 0 011.693-3.302 6.6 6.6 0 014.366-1.392 7.109 7.109 0 014.335 1.36 5.382 5.382 0 012.041 4.145h-3.2a2.876 2.876 0 00-.776-1.613 2.822 2.822 0 00-1.171-.744 4.68 4.68 0 00-1.17-.142 3.806 3.806 0 00-1.851.427 1.409 1.409 0 00-.775 1.3c0 1.06.917 1.693 2.753 1.93a10.131 10.131 0 015.078 1.693m-97.776 0a4.019 4.019 0 011.475 3.236 4.524 4.524 0 01-1.914 3.829 7.207 7.207 0 01-4.4 1.423 8 8 0 01-4.855-1.452 5.066 5.066 0 01-2.12-4.1h3.306a3.365 3.365 0 003.528 2.63 3.165 3.165 0 002.073-.664 2.1 2.1 0 00.791-1.666c0-1.091-1-1.788-2.99-2.073-2.674-.38-4.477-1.139-5.252-2.152a3.814 3.814 0 01-.965-2.673 4.182 4.182 0 011.692-3.302 6.6 6.6 0 014.367-1.392 7.112 7.112 0 014.335 1.36 5.381 5.381 0 012.041 4.146h-3.2a2.878 2.878 0 00-.771-1.614 2.829 2.829 0 00-1.171-.744 4.689 4.689 0 00-1.171-.142 3.805 3.805 0 00-1.851.427 1.408 1.408 0 00-.775 1.3c0 1.06.917 1.693 2.752 1.93a10.127 10.127 0 015.079 1.693m81.729-8.069h3.75l-5.379 16.2h-3.4l-2.976-10.016-3.016 10.014h-3.4l-5.348-16.2h3.7l3.366 11.407 3.307-11.407h2.722l3.368 11.407zm51.233 6.249v9.949h-3.718v-9.555c0-2.721-1.266-3.987-3.212-3.987a3.562 3.562 0 00-2.863 1.471 6.029 6.029 0 00-1.186 3.908v8.163h-3.433v-16.2h3.433v2.041a6.615 6.615 0 011.883-1.693 5.439 5.439 0 012.974-.775 6.393 6.393 0 013.132.775 5.408 5.408 0 011.5 1.17 7.144 7.144 0 011.487 4.731m-24.277-6.471a7.408 7.408 0 00-5.585 2.341 8.293 8.293 0 00-2.262 5.98 8.167 8.167 0 002.262 5.918 7.406 7.406 0 005.585 2.342 7.421 7.421 0 005.57-2.342 8.155 8.155 0 002.246-5.917 8.282 8.282 0 00-2.247-5.98 7.422 7.422 0 00-5.57-2.341m3.227 11.96a4.059 4.059 0 01-3.257 1.408 3.844 3.844 0 01-3.181-1.424 5.525 5.525 0 01-1.155-3.623 5.671 5.671 0 011.171-3.67 3.9 3.9 0 013.2-1.423 3.97 3.97 0 013.244 1.423 5.73 5.73 0 011.171 3.7 5.384 5.384 0 01-1.193 3.609m-97.024-3.671a4.021 4.021 0 011.471 3.239 4.524 4.524 0 01-1.914 3.834 7.21 7.21 0 01-4.4 1.423 8 8 0 01-4.855-1.457 5.066 5.066 0 01-2.12-4.1h3.307a3.365 3.365 0 003.527 2.63 3.163 3.163 0 002.073-.664 2.1 2.1 0 00.791-1.666c0-1.091-1-1.788-2.99-2.073-2.673-.38-4.477-1.139-5.252-2.152a3.813 3.813 0 01-.965-2.673 4.182 4.182 0 011.692-3.302 6.6 6.6 0 014.367-1.392 7.11 7.11 0 014.335 1.36 5.38 5.38 0 012.04 4.146h-3.2a2.875 2.875 0 00-.771-1.614 2.822 2.822 0 00-1.171-.744 4.681 4.681 0 00-1.171-.142 3.805 3.805 0 00-1.851.427 1.408 1.408 0 00-.775 1.3c0 1.06.917 1.693 2.752 1.93a10.131 10.131 0 015.08 1.69m29.7 4.43a66.605 66.605 0 00-.142-1.93c-.205-2.911-1.092-4.6-3.037-5.221a4.98 4.98 0 002.421-1.993 6.239 6.239 0 001.012-3.607 5.979 5.979 0 00-1.851-4.461 6.578 6.578 0 00-4.793-1.8l-9.778.031v22.715h3.559v-9.619h4.05c1.946 0 3.117.332 3.75 1.218a4.46 4.46 0 01.649 1.424 15.509 15.509 0 01.271 2.12c.015.332.047.76.079 1.3s.047.918.064 1.139c.016.237.031.506.079.838a5.629 5.629 0 00.4 1.551h4.018a5.728 5.728 0 01-.632-2.1c-.032-.284-.063-.823-.111-1.6m-7.293-8.97h-5.322V12.76h5.316c2.4 0 4.018 1.107 4.018 3.5s-1.6 3.465-4.018 3.465m17.021-3.925a7 7 0 00-4.762 1.645 6.087 6.087 0 00-2.1 4.161l3.639-.031a2.849 2.849 0 011-1.835 3.441 3.441 0 012.4-.791c1.582 0 2.658.87 2.658 1.946 0 .775-.364 1.282-1.487 1.566-.569.142-1 .238-1.266.285-.284.047-.823.095-1.629.158a8.261 8.261 0 00-4.462 1.455 4.134 4.134 0 00-1.443 3.462 4.333 4.333 0 001.614 3.559 5.913 5.913 0 003.876 1.329 6.128 6.128 0 004.794-2.23v1.914h3.591V21.445a5.329 5.329 0 00-1.708-4.082 6.71 6.71 0 00-4.715-1.563m2.832 10.407a3.124 3.124 0 01-1.361 2.693 4.467 4.467 0 01-2.863.838 2.185 2.185 0 01-2.326-2.138c0-1.234.934-1.93 2.816-2.1a10.472 10.472 0 003.766-.744z" fill="#fff"/></g></g></g></svg>