<?xml version="1.0" encoding="UTF-8"?><svg id="Layer_2" xmlns="http://www.w3.org/2000/svg" viewBox="0 0 603.6 66.66"><defs><style>.cls-1,.cls-2{stroke-linejoin:round;}.cls-1,.cls-2,.cls-3{fill:none;stroke:#fff;stroke-linecap:round;}.cls-1,.cls-3{stroke-width:4.2px;}.cls-4{fill:#000;}.cls-4,.cls-5{stroke-width:0px;}.cls-2{stroke-width:3.36px;}.cls-5{fill:#fff;}</style></defs><g id="Layer_1-2"><path class="cls-4" d="M123.7,49.96l-24.61,15.38c-2.83,1.77-6.42,1.77-9.25,0l-24.61-15.38c-4.29-2.68-5.41-8.44-2.43-12.53L87.41,3.59c3.48-4.79,10.62-4.79,14.11,0l24.61,33.84c2.97,4.09,1.86,9.85-2.43,12.53Z"/><g id="Layer_1-2"><path class="cls-3" d="M94.62,50.15l-15.98-8.61c-.81-.47-1.08-1.5-.61-2.3.02-.03.05-.07.07-.1l15.14-21.9c.54-.76,1.58-.94,2.34-.42.17.12.3.25.42.42l15.14,21.88"/><path class="cls-2" d="M94.62,16.51v33.64"/><path class="cls-1" d="M94.62,16.51v33.64"/><polygon class="cls-5" points="103.56 40.58 106.11 41.53 103.56 42.48 102.6 45.05 101.66 42.48 99.08 41.53 101.66 40.58 102.6 38.02 103.56 40.58"/></g><path class="cls-4" d="M59.96,42.36v18.32H0V2.39h21.65v39.98h38.31Z"/><path class="cls-4" d="M204.2,2.39v58.3h-28.32l-25.15-34.4v34.4h-21.65V2.39h28.32l25.15,34.4V2.39h21.65Z"/><path class="cls-4" d="M278.15,31.53c0,19.82-13.24,29.15-27.32,29.15h-43.31V2.39h43.31c14.07,0,27.32,9.33,27.32,29.15ZM256.5,31.53c0-10.83-7.66-10.83-12.33-10.83h-14.99v21.65h14.99c4.66,0,12.33,0,12.33-10.83Z"/><path class="cls-4" d="M369.92,60.68h-21.65v-27.73l-15.91,27.73h-14.16l-15.91-27.73v27.73h-21.65V2.39h26.65l17.99,33.31,17.99-33.31h26.65v58.3Z"/><path class="cls-4" d="M424.22,50.19h-24.82l-4,10.49h-23.82l24.15-58.3h32.15l24.15,58.3h-23.82l-4-10.49ZM418.55,35.2l-6.75-17.82-6.75,17.82h13.49Z"/><path class="cls-4" d="M511.49,43.94l10.33,16.74h-25.65l-8.08-13.66h-12.74v13.66h-21.65V2.39h45.8c13.24,0,22.32,9.33,22.32,22.32,0,8.49-3.92,15.49-10.33,19.24ZM475.35,28.7h19.99c2.17,0,4.83,0,4.83-4s-2.67-4-4.83-4h-19.99v8Z"/><path class="cls-4" d="M570.03,29.87l33.56,30.81h-29.98l-18.66-18.49-8.99,7.41v11.08h-21.65V2.39h21.65v22.82l26.82-22.82h30.81l-33.56,27.48Z"/></g></svg>