<?xml version="1.0" encoding="UTF-8"?><svg id="Layer_2" xmlns="http://www.w3.org/2000/svg" viewBox="0 0 262.51 262.5"><defs><style>.cls-1{fill:#000;}.cls-1,.cls-2{stroke-width:0px;}.cls-3{stroke:#fff;stroke-width:13.25px;}.cls-3,.cls-4,.cls-5{fill:none;stroke-linecap:round;}.cls-3,.cls-5{stroke-linejoin:round;}.cls-4,.cls-5{stroke:#000;stroke-width:16.56px;}.cls-2{fill:#fff;}</style></defs><g id="Layer_1-2"><path class="cls-2" d="M246.36,196.71l-96.91,60.57c-11.14,6.96-25.27,6.96-36.4,0l-96.91-60.57c-16.89-10.56-21.29-33.22-9.57-49.32L103.48,14.14c13.71-18.86,41.83-18.86,55.55,0l96.91,133.24c11.71,16.11,7.32,38.77-9.57,49.32Z"/><g id="Layer_1-2"><path class="cls-4" d="M131.84,197.48l-62.92-33.91c-3.18-1.85-4.24-5.89-2.38-9.07.07-.13.2-.26.26-.4l59.61-86.23c2.12-2.98,6.23-3.71,9.21-1.66.66.46,1.19.99,1.66,1.66l59.61,86.16"/><path class="cls-3" d="M131.84,65.02v132.46"/><path class="cls-5" d="M131.84,65.02v132.46"/><polygon class="cls-1" points="167.05 159.8 177.11 163.54 167.05 167.27 163.27 177.37 159.58 167.27 149.43 163.54 159.58 159.8 163.27 149.7 167.05 159.8"/></g></g></svg>