<?xml version="1.0" encoding="UTF-8"?>
<svg xmlns="http://www.w3.org/2000/svg" version="1.1" viewBox="0 0 187 34">
  <defs>
    <style>
      .cls-1 {
        fill: #055fb4;
      }

      .cls-2 {
        fill: #fff;
      }
    </style>
  </defs>
  <!-- Generator: Adobe Illustrator 28.7.0, SVG Export Plug-In . SVG Version: 1.2.0 Build 136)  -->
  <g>
    <g id="Layer_1">
      <path class="cls-1" d="M0,16.9c0,9.4,7.5,17,16.9,17.1,9.4,0,17-7.5,17.1-16.9C34,7.7,26.5,0,17.1,0h0C7.6,0,0,7.5,0,16.9Z"/>
      <path class="cls-2" d="M23,26.9h-11.9c-.9,0-1.7-.8-1.7-1.7v-7h-1.4c-.9,0-1.7-.8-1.7-1.7,0-.5.2-.9.5-1.2L15.8,6.2c.7-.7,1.7-.7,2.4,0,0,0,0,0,0,0l9.1,9.1c.7.7.7,1.7,0,2.4-.3.3-.8.5-1.2.5h-1.4v7c0,.9-.8,1.7-1.7,1.7h0ZM17,7.2c0,0-.1,0-.2,0l-9.1,9.1c0,0,0,.2,0,.2,0,0,.1.1.2.1h2.2c.4,0,.7.3.7.7,0,0,0,0,0,0v7.7c0,.1,0,.2.2.2,0,0,0,0,0,0h11.9c0,0,.2,0,.2-.1,0,0,0,0,0,0v-7.7c0-.4.3-.7.7-.7h2.2c0,0,.2,0,.2-.1,0,0,0-.2,0-.2l-9.1-9.1s-.1,0-.2,0h0Z"/>
      <path class="cls-2" d="M46.3,8.6v3h-1.2c-1.3,0-2.2.9-2.2,2.6v5.8h-2.8v-11.2h2.8v1.6c.5-1.1,1.6-1.9,2.8-1.8h.6s0,0,0,0ZM57.3,15h-7.9c.2,2,1.2,2.8,2.6,2.8s2.3-.6,2.9-2.1l2.4.9c-.9,2.5-2.8,3.6-5.1,3.6-3.3,0-5.6-2.3-5.6-5.9s2.3-5.8,5.5-5.8,5.3,2.3,5.3,5.8c0,.2,0,.4,0,.6ZM49.5,13.1h5c-.3-1.6-1.2-2.3-2.4-2.3s-2.2.8-2.5,2.3h0ZM68.4,12.9v7h-2.6v-1.1c-.7.9-1.8,1.3-3.3,1.3-2.6,0-4.3-1.3-4.3-3.5s1.8-3.5,4.5-3.5,2.3.4,2.9,1v-1c0-1.5-.9-2.2-2.3-2.2-1.1,0-2.2.7-2.5,1.8l-2.3-1c.8-2.4,2.7-3.3,4.9-3.3,2.7,0,5,1.4,5,4.4h0ZM65.7,16.7c0-1-.9-1.5-2.3-1.5s-2.3.5-2.3,1.5.9,1.5,2.3,1.5,2.3-.5,2.3-1.5h0ZM73.5,20c-2.1,0-3.2-1.3-3.2-3.3V4.8h2.8v11.7c0,.7.3,1.1,1,1.1h.8v2.4h-1.4,0ZM75.4,14.4c0-3.5,2.4-5.8,5.6-5.8s4.6,1.2,5.3,4l-2.5.9c-.5-1.7-1.5-2.4-2.9-2.4s-2.7,1.1-2.7,3.4,1.3,3.4,2.7,3.4,2.3-.6,2.9-2.4l2.5.9c-.7,2.7-2.9,4-5.3,4s-5.6-2.4-5.6-5.9ZM87,14.4c0-3.4,2.4-5.8,5.7-5.8s5.8,2.4,5.8,5.8-2.4,5.9-5.8,5.9-5.7-2.4-5.7-5.9ZM95.7,14.4c0-2.1-1.3-3.3-2.9-3.3s-2.9,1.2-2.9,3.3,1.2,3.4,2.9,3.4,2.9-1.2,2.9-3.4ZM116,12.6v7.4h-2.8v-6.8c0-1.4-.7-2.2-1.7-2.2s-2.1.8-2.1,2.3v6.7h-2.8v-6.8c0-1.4-.7-2.2-1.7-2.2s-2.1.8-2.1,2.3v6.7h-2.8v-11.2h2.8v1.4c.6-1.1,1.7-1.7,2.9-1.6,1.3,0,2.6.7,3.2,1.8.7-1.3,1.8-1.8,3.3-1.8,2.2,0,3.9,1.6,3.9,4.1h0ZM133.8,12.6v7.4h-2.8v-6.8c0-1.4-.7-2.2-1.7-2.2s-2.1.8-2.1,2.3v6.7h-2.8v-6.8c0-1.4-.7-2.2-1.7-2.2s-2.1.8-2.1,2.3v6.7h-2.8v-11.2h2.8v1.4c.6-1.1,1.7-1.7,2.9-1.6,1.3,0,2.6.7,3.2,1.8.7-1.3,1.8-1.8,3.3-1.8,2.2,0,3.9,1.6,3.9,4.1h0ZM145.9,15h-7.9c.2,2,1.2,2.8,2.6,2.8s2.3-.6,2.9-2.1l2.4.9c-.9,2.5-2.8,3.6-5.1,3.6-3.3,0-5.6-2.3-5.6-5.9s2.3-5.8,5.5-5.8,5.3,2.3,5.3,5.8c0,.2,0,.4,0,.6h0ZM138.1,13.1h5c-.3-1.6-1.2-2.3-2.4-2.3s-2.2.8-2.5,2.3ZM153.6,8.6v3h-1.2c-1.3,0-2.2.9-2.2,2.6v5.8h-2.8v-11.2h2.8v1.6c.6-1.3,1.7-1.8,2.8-1.8h.6ZM153.9,14.4c0-3.5,2.4-5.8,5.6-5.8s4.6,1.2,5.3,4l-2.5.9c-.5-1.7-1.5-2.4-2.9-2.4s-2.7,1.1-2.7,3.4,1.3,3.4,2.7,3.4,2.3-.6,2.9-2.4l2.5.9c-.7,2.7-2.9,4-5.3,4s-5.6-2.4-5.6-5.9h0ZM165.6,5.9c0-1,.8-1.7,1.8-1.7,1,0,1.8.8,1.8,1.7,0,1.1-.8,1.7-1.8,1.7s-1.8-.6-1.8-1.7h0ZM168.8,8.8v11.2h-2.8v-11.2h2.8s0,0,0,0ZM180.4,12.9v7h-2.6v-1.1c-.7.9-1.8,1.3-3.3,1.3-2.6,0-4.3-1.3-4.3-3.5s1.8-3.5,4.5-3.5,2.3.4,2.9,1v-1c0-1.5-.9-2.2-2.3-2.2-1.1,0-2.2.7-2.5,1.8l-2.3-1c.8-2.4,2.7-3.3,4.9-3.3,2.7,0,5,1.4,5,4.4ZM177.7,16.7c0-1-.9-1.5-2.3-1.5s-2.3.5-2.3,1.5.9,1.5,2.3,1.5,2.3-.5,2.3-1.5h0ZM185.5,20c-2.1,0-3.2-1.3-3.2-3.3V4.8h2.8v11.7c0,.7.3,1.1,1,1.1h.8v2.4h-1.4Z"/>
      <path class="cls-2" d="M37.6,28.1c0-.5.4-.9.9-.9.5,0,.9.4.9.9,0,.5-.4.9-.9.9-.5,0-.9-.4-.9-.9,0,0,0,0,0,0ZM39.9,26.1c0-1.7,1.2-2.9,2.8-2.9,1.3,0,2.4.8,2.7,2l-1.2.4c-.3-.9-.7-1.2-1.4-1.2s-1.3.5-1.3,1.7.7,1.7,1.4,1.7,1.2-.3,1.4-1.2l1.2.4c-.3,1.2-1.4,2.1-2.7,2-1.6,0-2.8-1.2-2.8-2.9ZM45.7,26.1c0-1.6,1.3-2.9,2.9-2.8,1.6,0,2.9,1.3,2.8,2.9,0,1.6-1.3,2.9-2.9,2.8-1.5,0-2.8-1.2-2.9-2.7,0,0,0-.1,0-.2ZM50.1,26.1c0-1.1-.6-1.7-1.5-1.7s-1.4.6-1.4,1.7.6,1.7,1.4,1.7,1.5-.6,1.5-1.7ZM60.3,25.3v3.7h-1.4v-3.4c0-.7-.4-1.1-.9-1.1s-1,.4-1,1.1v3.4h-1.4v-3.4c0-.7-.4-1.1-.9-1.1-.6,0-1,.4-1,1,0,0,0,0,0,.1v3.4h-1.4v-5.6h1.4v.7c.3-.5.8-.9,1.4-.8.7,0,1.3.3,1.6.9.3-.6.9-1,1.6-.9,1,0,1.9.8,1.9,1.9,0,0,0,.1,0,.2ZM60.9,28.1c0-.5.4-.9.9-.9.5,0,.9.4.9.9,0,.5-.4.9-.9.9-.5,0-.9-.4-.9-.9,0,0,0,0,0,0h0ZM68.4,25.4v3.5h-1.3v-.5c-.4.5-1,.7-1.6.7-1.3,0-2.2-.6-2.2-1.7s.9-1.7,2.3-1.7c.5,0,1.1.1,1.5.5v-.5c0-.7-.4-1.1-1.2-1.1-.6,0-1.1.3-1.2.9l-1.2-.5c.4-1.2,1.4-1.6,2.5-1.6,1.3,0,2.5.7,2.5,2.2ZM67,27.3c0-.5-.5-.7-1.2-.7s-1.1.3-1.1.7.5.7,1.1.7,1.2-.3,1.2-.7ZM69.3,26.7v-3.3h1.4v3.2c0,.8.4,1.2,1.1,1.2s1.1-.4,1.1-1.2v-3.2h1.4v3.3c0,1.5-1.1,2.4-2.5,2.4s-2.5-.9-2.5-2.4h0Z"/>
    </g>
  </g>
</svg>